<svg width="20" height="21" viewBox="0 0 20 21" fill="none" xmlns="http://www.w3.org/2000/svg">
<path d="M10.5 3.49979C14.5 2.99974 17 7.00019 16.5 9.5M9.99997 5.49979C13 4.99979 15 7.99979 14.5 9.99979M9.99997 7.49979C11.5 7 13 9 12.5 9.99979M0.999968 6C0.499968 3 3 1.5 4.49997 1.5C5.99994 1.5 7.49994 4.49958 7.49997 5.49979C7.5 6.5 5.49994 7 5.49997 8C5.5 9 10.9999 14.5 12 14.5C13 14.5 13.9999 12.5 15 12.5C16 12.5 18.4999 15 18.5 16C18.5 17 17 20 14.5 19.5C11.9999 19 6.49997 14 6.49997 14C6.49997 14 1.49997 9 0.999968 6Z" stroke="white"/>
</svg>
